<svg width="36" height="40" viewBox="0 0 36 40" fill="none" xmlns="http://www.w3.org/2000/svg">
<path d="M29.9723 20.9722C30.5092 20.4352 30.5092 19.5648 29.9723 19.0278L26.3056 15.3611C25.7686 14.8241 24.898 14.8241 24.3611 15.3611C23.8241 15.898 23.8241 16.7686 24.3611 17.3055L25.6805 18.625H12.5C11.7406 18.625 11.125 19.2406 11.125 20C11.125 20.7594 11.7406 21.375 12.5 21.375H25.6805L24.3611 22.6944C23.8241 23.2314 23.8241 24.1019 24.3611 24.6389C24.898 25.1759 25.7686 25.1759 26.3056 24.6389L29.9723 20.9722Z" fill="#0C170C" stroke="#0C170C" stroke-width="0.00024"/>
<path fill-rule="evenodd" clip-rule="evenodd" d="M14.4336 0.291665H12.399C9.89171 0.291628 7.87083 0.291592 6.28133 0.505285C4.63115 0.727155 3.24166 1.20179 2.13818 2.30531C1.0347 3.40883 0.560047 4.79825 0.338215 6.44846C0.124447 8.0379 0.12463 10.0588 0.12463 12.5661V27.434C0.12463 29.9412 0.124447 31.9621 0.338215 33.5516C0.560047 35.2018 1.0347 36.5911 2.13818 37.6948C3.24166 38.7983 4.63115 39.2729 6.28133 39.4947C7.87083 39.7083 9.89171 39.7083 12.399 39.7083H14.4336C16.9407 39.7083 18.9618 39.7083 20.5511 39.4947C22.2013 39.2729 23.5908 38.7983 24.6943 37.6948C25.4257 36.9633 25.8821 36.1047 26.1711 35.1246C27.9153 35.1224 29.3684 35.1032 30.5457 34.945C31.9463 34.7567 33.1606 34.3491 34.1298 33.3798C35.0991 32.4106 35.5066 31.1963 35.6949 29.7957C35.8751 28.4559 35.875 26.7586 35.875 24.6818V15.3182C35.875 13.2414 35.8751 11.5442 35.6949 10.2043C35.5066 8.80372 35.0991 7.58943 34.1298 6.62015C33.1606 5.65088 31.9463 5.24337 30.5457 5.05507C29.3684 4.89678 27.9153 4.8776 26.1711 4.87531C25.8821 3.8953 25.4257 3.0367 24.6943 2.30531C23.5908 1.20179 22.2013 0.727155 20.5511 0.505285C18.9618 0.291592 16.9407 0.291628 14.4336 0.291665ZM26.7047 29.1744C26.6982 30.3559 26.6786 31.4204 26.6114 32.3733C28.1413 32.3675 29.2787 32.3405 30.1793 32.2195C31.2749 32.0721 31.8121 31.8085 32.1853 31.4352C32.5584 31.0621 32.8222 30.525 32.9695 29.4292C33.1221 28.2942 33.125 26.7828 33.125 24.5833V15.4167C33.125 13.2172 33.1221 11.7059 32.9695 10.5707C32.8222 9.47509 32.5584 8.93785 32.1853 8.56469C31.8121 8.19153 31.2749 7.92785 30.1793 7.78054C29.2787 7.65946 28.1413 7.63261 26.6114 7.62667C26.6786 8.57967 26.6982 9.64403 26.7047 10.8257C26.709 11.5851 26.0968 12.2041 25.3374 12.2083C24.578 12.2125 23.959 11.6004 23.9548 10.841C23.9436 8.83624 23.8915 7.41526 23.6935 6.33681C23.5026 5.29765 23.1961 4.69617 22.7497 4.24985C22.2423 3.74246 21.5299 3.41163 20.1848 3.23077C18.7999 3.04458 16.9645 3.04166 14.333 3.04166H12.4996C9.86806 3.04166 8.03271 3.04458 6.64781 3.23077C5.30251 3.41163 4.59026 3.74246 4.0828 4.24985C3.57533 4.75724 3.24459 5.46964 3.06365 6.81488C2.87756 8.19969 2.87463 10.0351 2.87463 12.6667V27.3333C2.87463 29.9649 2.87756 31.8002 3.06365 33.1851C3.24459 34.5304 3.57533 35.2427 4.0828 35.7502C4.59026 36.2576 5.30251 36.5884 6.64781 36.7693C8.03271 36.9554 9.86806 36.9583 12.4996 36.9583H14.333C16.9645 36.9583 18.7999 36.9554 20.1848 36.7693C21.5299 36.5884 22.2423 36.2576 22.7497 35.7502C23.1961 35.3037 23.5026 34.7024 23.6935 33.6633C23.8915 32.5847 23.9436 31.1637 23.9548 29.159C23.959 28.3996 24.578 27.7874 25.3374 27.7917C26.0968 27.7959 26.709 28.415 26.7047 29.1744Z" fill="#0C170C" stroke="#0C170C" stroke-width="0.00024"/>
</svg>
