<svg width="38" height="38" viewBox="0 0 38 38" fill="none" xmlns="http://www.w3.org/2000/svg">
<path d="M32.4585 9.5H5.54163" stroke="#0C170C" stroke-width="1.92" stroke-linecap="round"/>
<path d="M29.8192 13.4584L29.0909 24.3819C28.8107 28.5855 28.6705 30.6874 27.3009 31.9686C25.9314 33.25 23.8249 33.25 19.612 33.25H18.3876C14.1746 33.25 12.0681 33.25 10.6985 31.9686C9.32891 30.6874 9.18879 28.5855 8.90854 24.3819L8.1803 13.4584" stroke="#0C170C" stroke-width="1.92" stroke-linecap="round"/>
<path d="M15.0416 17.4166L15.8333 25.3333" stroke="#0C170C" stroke-width="1.92" stroke-linecap="round"/>
<path d="M22.9583 17.4166L22.1666 25.3333" stroke="#0C170C" stroke-width="1.92" stroke-linecap="round"/>
<path d="M10.2916 9.5C10.3801 9.5 10.4243 9.5 10.4644 9.49899C11.7682 9.46594 12.9184 8.63694 13.3621 7.41051C13.3757 7.37278 13.3897 7.33082 13.4177 7.24687L13.5714 6.78571C13.7026 6.39204 13.7682 6.1952 13.8552 6.02807C14.2025 5.36128 14.8449 4.89826 15.5873 4.77972C15.7733 4.75 15.9809 4.75 16.3959 4.75H21.6041C22.0191 4.75 22.2266 4.75 22.4127 4.77972C23.1551 4.89826 23.7975 5.36128 24.1447 6.02807C24.2318 6.1952 24.2973 6.39204 24.4286 6.78571L24.5823 7.24687C24.6102 7.33071 24.6243 7.37281 24.6379 7.41051C25.0815 8.63694 26.2317 9.46594 27.5355 9.49899C27.5756 9.5 27.6198 9.5 27.7083 9.5" stroke="#0C170C" stroke-width="1.92"/>
</svg>
