<svg width="53" height="53" viewBox="0 0 53 53" fill="none" xmlns="http://www.w3.org/2000/svg">
<path d="M41.2222 19.5989V37.5416C41.2222 43.0624 37.9281 44.9027 33.8611 44.9027H19.1389C15.0719 44.9027 11.7778 43.0624 11.7778 37.5416V19.5989C11.7778 13.618 15.0719 12.2378 19.1389 12.2378C19.1389 13.3788 19.5989 14.4093 20.3534 15.1638C21.1079 15.9183 22.1385 16.3784 23.2795 16.3784H29.7205C32.0024 16.3784 33.8611 14.5197 33.8611 12.2378C37.9281 12.2378 41.2222 13.618 41.2222 19.5989Z" stroke="#04D900" stroke-width="2.4" stroke-linecap="round" stroke-linejoin="round"/>
<path d="M33.8611 12.2378C33.8611 14.5197 32.0024 16.3784 29.7205 16.3784H23.2795C22.1385 16.3784 21.1079 15.9183 20.3534 15.1638C19.5989 14.4093 19.1389 13.3788 19.1389 12.2378C19.1389 9.95585 20.9976 8.09717 23.2795 8.09717H29.7205C30.8615 8.09717 31.892 8.55724 32.6465 9.31175C33.401 10.0663 33.8611 11.0968 33.8611 12.2378Z" stroke="#04D900" stroke-width="2.4" stroke-linecap="round" stroke-linejoin="round"/>
<path d="M19.1389 28.3402H26.5" stroke="#04D900" stroke-width="2.4" stroke-linecap="round" stroke-linejoin="round"/>
<path d="M19.1389 35.7013H33.8611" stroke="#04D900" stroke-width="2.4" stroke-linecap="round" stroke-linejoin="round"/>
</svg>
